<svg width="158" height="32" viewBox="0 0 158 32" fill="none" xmlns="http://www.w3.org/2000/svg">
<rect width="16.0009" height="16.0009" transform="matrix(0.86601 0.500027 3.18351e-05 1 13.8574 0)" fill="#6E6E6E"/>
<rect width="16.0009" height="16.0009" transform="matrix(0.86601 -0.500027 -3.18351e-05 1 0.000488281 8.00089)" fill="#5A5A5A"/>
<rect width="16.0009" height="16.0009" transform="matrix(0.866041 0.499972 -0.866041 0.499972 13.8574 16)" fill="#AAAAAA"/>
<rect width="16.0009" height="16.0009" transform="matrix(0.86601 0.500027 3.18351e-05 1 0 7.99823)" fill="#F5F5F5"/>
<rect width="4.43901" height="6.72933" transform="matrix(0.86601 0.500027 3.18351e-05 1 5.00635 10.8889)" fill="#EB8E00"/>
<rect width="16.0009" height="16.0009" transform="matrix(0.86601 -0.500027 -3.18351e-05 1 13.8574 15.9991)" fill="#B9B9B9"/>
<rect width="4.01774" height="6.53603" transform="matrix(0.86601 -0.500027 -3.18351e-05 1 19.0461 13.0031)" fill="#CD7000"/>
<rect width="16.0009" height="16.0009" transform="matrix(0.866041 -0.499972 0.866041 0.499972 0 8)" fill="#E1E1E1"/>
<rect width="4.07962" height="16.0009" transform="matrix(0.866041 -0.499972 0.866041 0.499972 5.16211 5.01984)" fill="#EB8E00"/>
<rect width="16.0009" height="4.32045" transform="matrix(0.866041 -0.499972 0.866041 0.499972 5.05786 10.92)" fill="#FFA20D"/>
<path d="M52.2764 22.5L47.9682 16.7791H46.8048V22.5H44.4334V9.40909H46.8048V14.7912H47.3993L52.0527 9.40909H54.9739L49.8027 15.3793L55.1976 22.5H52.2764ZM59.3514 22.6982C58.7292 22.6982 58.1689 22.5874 57.6703 22.3658C57.176 22.1399 56.7839 21.8075 56.4941 21.3686C56.2086 20.9297 56.0659 20.3885 56.0659 19.745C56.0659 19.1911 56.1682 18.733 56.3727 18.3707C56.5772 18.0085 56.8564 17.7188 57.2101 17.5014C57.5638 17.2841 57.9622 17.12 58.4054 17.0092C58.8528 16.8942 59.3152 16.8111 59.7924 16.7599C60.3677 16.7003 60.8343 16.647 61.1923 16.6001C61.5503 16.549 61.8102 16.4723 61.9721 16.37C62.1383 16.2635 62.2214 16.0994 62.2214 15.8778V15.8395C62.2214 15.358 62.0787 14.9851 61.7932 14.7209C61.5076 14.4567 61.0964 14.3246 60.5595 14.3246C59.9927 14.3246 59.5432 14.4482 59.2108 14.6953C58.8826 14.9425 58.6611 15.2344 58.546 15.571L56.3855 15.2642C56.5559 14.6676 56.8372 14.169 57.2292 13.7685C57.6213 13.3636 58.1007 13.0611 58.6674 12.8608C59.2342 12.6562 59.8606 12.554 60.5467 12.554C61.0197 12.554 61.4906 12.6094 61.9593 12.7202C62.4281 12.831 62.8564 13.0142 63.2441 13.2699C63.6319 13.5213 63.943 13.8643 64.1774 14.299C64.416 14.7337 64.5353 15.277 64.5353 15.929V22.5H62.3109V21.1513H62.2342C62.0936 21.424 61.8954 21.6797 61.6397 21.9183C61.3883 22.1527 61.0709 22.3423 60.6873 22.4872C60.3081 22.6278 59.8628 22.6982 59.3514 22.6982ZM59.9522 20.9979C60.4167 20.9979 60.8194 20.9062 61.1603 20.723C61.5013 20.5355 61.7633 20.2884 61.9466 19.9815C62.1341 19.6747 62.2278 19.3402 62.2278 18.978V17.821C62.1554 17.8807 62.0318 17.9361 61.8571 17.9872C61.6866 18.0384 61.4949 18.0831 61.2818 18.1214C61.0687 18.1598 60.8578 18.1939 60.649 18.2237C60.4402 18.2536 60.2591 18.2791 60.1057 18.3004C59.7605 18.3473 59.4515 18.424 59.1788 18.5305C58.9061 18.6371 58.6909 18.7862 58.5332 18.978C58.3755 19.1655 58.2967 19.4084 58.2967 19.7067C58.2967 20.1328 58.4522 20.4545 58.7633 20.6719C59.0744 20.8892 59.4707 20.9979 59.9522 20.9979ZM66.682 26.1818V12.6818H68.9576V14.3054H69.0918C69.2112 14.0668 69.3795 13.8132 69.5968 13.5447C69.8141 13.272 70.1082 13.0398 70.4789 12.848C70.8497 12.652 71.3227 12.554 71.898 12.554C72.6565 12.554 73.3404 12.7479 73.9498 13.1357C74.5634 13.5192 75.0492 14.0881 75.4072 14.8423C75.7694 15.5923 75.9505 16.5128 75.9505 17.6037C75.9505 18.6818 75.7737 19.598 75.42 20.3523C75.0663 21.1065 74.5847 21.6818 73.9754 22.0781C73.366 22.4744 72.6757 22.6726 71.9043 22.6726C71.3418 22.6726 70.8752 22.5788 70.5045 22.3913C70.1338 22.2038 69.8355 21.978 69.6096 21.7138C69.388 21.4453 69.2154 21.1918 69.0918 20.9531H68.996V26.1818H66.682ZM68.9512 17.5909C68.9512 18.2259 69.0407 18.782 69.2197 19.2592C69.4029 19.7365 69.665 20.1094 70.0059 20.3778C70.3511 20.642 70.7687 20.7741 71.2588 20.7741C71.7701 20.7741 72.1984 20.6378 72.5436 20.3651C72.8887 20.0881 73.1487 19.7109 73.3234 19.2337C73.5024 18.7521 73.5918 18.2045 73.5918 17.5909C73.5918 16.9815 73.5045 16.4403 73.3298 15.9673C73.1551 15.4943 72.8951 15.1236 72.5499 14.8551C72.2048 14.5866 71.7744 14.4524 71.2588 14.4524C70.7644 14.4524 70.3447 14.5824 69.9995 14.8423C69.6543 15.1023 69.3923 15.4666 69.2133 15.9354C69.0386 16.4041 68.9512 16.956 68.9512 17.5909ZM84.2464 12.6818V14.5803H80.0148V22.5H77.752V12.6818H84.2464ZM87.3599 26.1818C87.0445 26.1818 86.7526 26.1563 86.4842 26.1051C86.22 26.0582 86.009 26.0028 85.8513 25.9389L86.3883 24.1364C86.7249 24.2344 87.0253 24.2813 87.2896 24.277C87.5538 24.2727 87.786 24.1896 87.9863 24.0277C88.1908 23.87 88.3634 23.6058 88.504 23.2351L88.7022 22.7045L85.1418 12.6818H87.5964L89.8592 20.0966H89.9614L92.2306 12.6818H94.6915L90.7604 23.6889C90.5772 24.2088 90.3343 24.6541 90.0317 25.0249C89.7292 25.3999 89.3584 25.6854 88.9195 25.8814C88.4849 26.0817 87.965 26.1818 87.3599 26.1818ZM96.1127 12.6818H98.3436V20.5952H101.431V12.6818H103.662V20.5952H106.749V12.6818H108.98V22.5H96.1127V12.6818ZM117.881 16.6321V18.5305H112.653V16.6321H117.881ZM113.369 12.6818V22.5H111.138V12.6818H113.369ZM119.396 12.6818V22.5H117.172V12.6818H119.396ZM125.84 22.6918C124.881 22.6918 124.05 22.4808 123.347 22.0589C122.644 21.6371 122.099 21.0469 121.711 20.2884C121.327 19.5298 121.136 18.6435 121.136 17.6293C121.136 16.6151 121.327 15.7266 121.711 14.9638C122.099 14.201 122.644 13.6087 123.347 13.1868C124.05 12.7649 124.881 12.554 125.84 12.554C126.799 12.554 127.63 12.7649 128.333 13.1868C129.036 13.6087 129.579 14.201 129.963 14.9638C130.351 15.7266 130.545 16.6151 130.545 17.6293C130.545 18.6435 130.351 19.5298 129.963 20.2884C129.579 21.0469 129.036 21.6371 128.333 22.0589C127.63 22.4808 126.799 22.6918 125.84 22.6918ZM125.853 20.8381C126.373 20.8381 126.807 20.6953 127.157 20.4098C127.506 20.12 127.766 19.7322 127.937 19.2464C128.111 18.7607 128.199 18.2195 128.199 17.6229C128.199 17.022 128.111 16.4787 127.937 15.9929C127.766 15.5028 127.506 15.1129 127.157 14.8232C126.807 14.5334 126.373 14.3885 125.853 14.3885C125.32 14.3885 124.877 14.5334 124.523 14.8232C124.174 15.1129 123.912 15.5028 123.737 15.9929C123.567 16.4787 123.481 17.022 123.481 17.6229C123.481 18.2195 123.567 18.7607 123.737 19.2464C123.912 19.7322 124.174 20.12 124.523 20.4098C124.877 20.6953 125.32 20.8381 125.853 20.8381ZM133.754 22.6406C133.366 22.6406 133.034 22.5043 132.757 22.2315C132.48 21.9588 132.344 21.6264 132.348 21.2344C132.344 20.8509 132.48 20.5227 132.757 20.25C133.034 19.9773 133.366 19.8409 133.754 19.8409C134.129 19.8409 134.455 19.9773 134.732 20.25C135.013 20.5227 135.156 20.8509 135.16 21.2344C135.156 21.4943 135.088 21.7308 134.956 21.9439C134.828 22.157 134.657 22.3274 134.444 22.4553C134.236 22.5788 134.005 22.6406 133.754 22.6406ZM137.369 26.1818V12.6818H139.645V14.3054H139.779C139.898 14.0668 140.067 13.8132 140.284 13.5447C140.501 13.272 140.795 13.0398 141.166 12.848C141.537 12.652 142.01 12.554 142.585 12.554C143.344 12.554 144.028 12.7479 144.637 13.1357C145.251 13.5192 145.736 14.0881 146.094 14.8423C146.457 15.5923 146.638 16.5128 146.638 17.6037C146.638 18.6818 146.461 19.598 146.107 20.3523C145.754 21.1065 145.272 21.6818 144.663 22.0781C144.053 22.4744 143.363 22.6726 142.592 22.6726C142.029 22.6726 141.562 22.5788 141.192 22.3913C140.821 22.2038 140.523 21.978 140.297 21.7138C140.075 21.4453 139.903 21.1918 139.779 20.9531H139.683V26.1818H137.369ZM139.638 17.5909C139.638 18.2259 139.728 18.782 139.907 19.2592C140.09 19.7365 140.352 20.1094 140.693 20.3778C141.038 20.642 141.456 20.7741 141.946 20.7741C142.457 20.7741 142.886 20.6378 143.231 20.3651C143.576 20.0881 143.836 19.7109 144.011 19.2337C144.19 18.7521 144.279 18.2045 144.279 17.5909C144.279 16.9815 144.192 16.4403 144.017 15.9673C143.842 15.4943 143.582 15.1236 143.237 14.8551C142.892 14.5866 142.462 14.4524 141.946 14.4524C141.452 14.4524 141.032 14.5824 140.687 14.8423C140.342 15.1023 140.08 15.4666 139.901 15.9354C139.726 16.4041 139.638 16.956 139.638 17.5909ZM149.544 26.1818C149.228 26.1818 148.936 26.1563 148.668 26.1051C148.404 26.0582 148.193 26.0028 148.035 25.9389L148.572 24.1364C148.909 24.2344 149.209 24.2813 149.473 24.277C149.737 24.2727 149.97 24.1896 150.17 24.0277C150.375 23.87 150.547 23.6058 150.688 23.2351L150.886 22.7045L147.325 12.6818H149.78L152.043 20.0966H152.145L154.414 12.6818H156.875L152.944 23.6889C152.761 24.2088 152.518 24.6541 152.215 25.0249C151.913 25.3999 151.542 25.6854 151.103 25.8814C150.669 26.0817 150.149 26.1818 149.544 26.1818Z" fill="white"/>
</svg>
