<svg width="26" height="26" viewBox="0 0 26 26" fill="none" xmlns="http://www.w3.org/2000/svg">
<circle cx="13" cy="13" r="10.5625" fill="white"/>
<path fill-rule="evenodd" clip-rule="evenodd" d="M0 13C0 20.1797 5.8203 26 13 26C20.1797 26 26 20.1797 26 13C26 5.8203 20.1797 0 13 0C5.8203 0 0 5.8203 0 13ZM10.3171 18.6388L10.5383 15.325L10.5381 15.3249L16.5663 9.88493C16.8309 9.65013 16.5085 9.53563 16.1573 9.7486L8.71774 14.4421L5.50425 13.4392C4.81028 13.2267 4.8053 12.7498 5.66006 12.407L18.1823 7.57844C18.7542 7.31879 19.3062 7.71581 19.0879 8.59116L16.9554 18.6405C16.8065 19.3546 16.375 19.5254 15.7771 19.1955L12.5286 16.7955L10.9671 18.3138C10.9622 18.3186 10.9573 18.3234 10.9524 18.3281C10.7778 18.4981 10.6333 18.6388 10.3171 18.6388Z" fill="#0088CC"/>
</svg>
