<svg width="27" height="26" viewBox="0 0 27 26" fill="none" xmlns="http://www.w3.org/2000/svg">
<circle cx="13.6" cy="13" r="10.5625" fill="white"/>
<path fill-rule="evenodd" clip-rule="evenodd" d="M0.599976 13C0.599976 20.1797 6.42027 26 13.6 26C20.7797 26 26.6 20.1797 26.6 13C26.6 5.8203 20.7797 0 13.6 0C6.42027 0 0.599976 5.8203 0.599976 13ZM21.7586 12.5025C21.7569 16.7636 18.2905 20.2309 14.0285 20.2326H14.0253C12.7315 20.2322 11.4603 19.9076 10.3312 19.2917L6.23331 20.3667L7.32998 16.361C6.6535 15.1886 6.29754 13.8588 6.29812 12.4964C6.29981 8.23425 9.76758 4.76667 14.0284 4.76667C16.0963 4.76756 18.0372 5.57259 19.4967 7.03376C20.9561 8.49486 21.7595 10.437 21.7586 12.5025Z" fill="#24CC63"/>
<path fill-rule="evenodd" clip-rule="evenodd" d="M8.08931 18.5302L10.5211 17.8923L10.7557 18.0315C11.7422 18.6169 12.8729 18.9267 14.0259 18.9271H14.0285C17.5698 18.9271 20.452 16.0448 20.4534 12.502C20.4541 10.7852 19.7864 9.17101 18.5734 7.95654C17.3603 6.74207 15.7471 6.07292 14.031 6.07233C10.487 6.07233 7.60468 8.95436 7.60327 12.4968C7.60277 13.7109 7.94246 14.8932 8.58562 15.9161L8.73838 16.1592L8.08931 18.5302ZM17.6584 14.1668C17.7931 14.2319 17.884 14.2759 17.9229 14.3407C17.9712 14.4212 17.9712 14.808 17.8103 15.2592C17.6493 15.7104 16.8776 16.1222 16.5065 16.1776C16.1737 16.2274 15.7526 16.2481 15.2899 16.1011C15.0094 16.0121 14.6496 15.8932 14.1888 15.6942C12.3781 14.9123 11.1544 13.1573 10.9231 12.8256C10.9069 12.8024 10.8955 12.7861 10.8892 12.7777L10.8877 12.7756C10.7854 12.6392 10.1005 11.7254 10.1005 10.7796C10.1005 9.88989 10.5376 9.42355 10.7387 9.20889C10.7525 9.19418 10.7652 9.18066 10.7766 9.16826C10.9536 8.97488 11.1629 8.92654 11.2916 8.92654C11.4204 8.92654 11.5493 8.92773 11.6618 8.93338C11.6757 8.93408 11.6901 8.934 11.7051 8.93391C11.8176 8.93325 11.958 8.93243 12.0964 9.26495C12.1497 9.39292 12.2276 9.58264 12.3098 9.78274C12.476 10.1874 12.6596 10.6344 12.6919 10.6991C12.7402 10.7958 12.7724 10.9086 12.708 11.0375C12.6984 11.0569 12.6894 11.0751 12.6809 11.0925C12.6325 11.1913 12.5969 11.2639 12.5149 11.3597C12.4826 11.3974 12.4492 11.438 12.4159 11.4786C12.3494 11.5596 12.283 11.6405 12.2251 11.6981C12.1284 11.7944 12.0278 11.8989 12.1405 12.0923C12.2531 12.2857 12.6408 12.9182 13.215 13.4304C13.8322 13.9809 14.3687 14.2136 14.6406 14.3316C14.6937 14.3546 14.7367 14.3732 14.7683 14.389C14.9614 14.4858 15.074 14.4696 15.1867 14.3407C15.2994 14.2118 15.6695 13.7767 15.7983 13.5833C15.927 13.39 16.0559 13.4222 16.2329 13.4867C16.41 13.5512 17.3596 14.0184 17.5527 14.1151C17.5904 14.134 17.6257 14.151 17.6584 14.1668Z" fill="#24CC63"/>
</svg>
