<svg width="28" height="32" viewBox="0 0 28 32" fill="none" xmlns="http://www.w3.org/2000/svg">
<rect width="16.0009" height="16.0009" transform="matrix(0.86601 0.500027 3.18351e-05 1 13.8574 0)" fill="#6E6E6E"/>
<rect width="16.0009" height="16.0009" transform="matrix(0.86601 -0.500027 -3.18351e-05 1 0.000488281 8.00089)" fill="#5A5A5A"/>
<rect width="16.0009" height="16.0009" transform="matrix(0.866041 0.499972 -0.866041 0.499972 13.8574 16)" fill="#AAAAAA"/>
<rect width="16.0009" height="16.0009" transform="matrix(0.86601 0.500027 3.18351e-05 1 0 7.99823)" fill="#F5F5F5"/>
<rect width="4.43901" height="6.72933" transform="matrix(0.86601 0.500027 3.18351e-05 1 5.00635 10.8889)" fill="#EB8E00"/>
<rect width="16.0009" height="16.0009" transform="matrix(0.86601 -0.500027 -3.18351e-05 1 13.8574 15.9991)" fill="#B9B9B9"/>
<rect width="4.01774" height="6.53603" transform="matrix(0.86601 -0.500027 -3.18351e-05 1 19.0461 13.0031)" fill="#CD7000"/>
<rect width="16.0009" height="16.0009" transform="matrix(0.866041 -0.499972 0.866041 0.499972 0 8)" fill="#E1E1E1"/>
<rect width="4.07962" height="16.0009" transform="matrix(0.866041 -0.499972 0.866041 0.499972 5.16211 5.01984)" fill="#EB8E00"/>
<rect width="16.0009" height="4.32045" transform="matrix(0.866041 -0.499972 0.866041 0.499972 5.05786 10.92)" fill="#FFA20D"/>
</svg>
