<svg width="237" height="62" viewBox="0 0 237 62" fill="none" xmlns="http://www.w3.org/2000/svg">
<path d="M31.1718 20.2042C21.8451 16.8886 11.7076 16.6148 2.21558 19.422C1.83828 19.5123 1.48304 19.6777 1.17108 19.9083C0.859111 20.1389 0.596816 20.43 0.39985 20.7643C0.202884 21.0985 0.0752869 21.469 0.0246769 21.8536C-0.0259332 22.2383 0.00148172 22.6292 0.105285 23.003C0.624801 25.0879 1.38259 27.4833 2.29272 29.6551C2.30835 29.7059 2.33276 29.6815 2.33276 29.6307C2.20093 28.6122 2.98411 27.3261 4.5202 26.8583C11.9023 24.5089 19.8468 24.6141 27.1641 27.1581C27.434 27.2504 27.7196 27.2878 28.0042 27.2679C28.2887 27.2481 28.5664 27.1715 28.8209 27.0426C29.0754 26.9137 29.3015 26.7352 29.4859 26.5176C29.6702 26.2999 29.8092 26.0475 29.8945 25.7753C30.8046 22.8457 31.1718 20.8565 31.2626 20.3585C31.2782 20.2657 31.1962 20.2306 31.1718 20.2052V20.2042ZM8.66949 26.6493C7.55136 26.8827 6.0055 27.2499 4.84538 27.6347C2.52611 28.4344 2.63353 31.2566 3.86885 32.157C3.95967 31.6336 4.5202 30.9217 5.14518 30.6815C7.46054 29.7713 9.9468 29.2274 12.4604 29.0028C11.1831 28.4843 9.93703 27.7411 8.68609 26.6484L8.66949 26.6493ZM27.1328 32.2996C23.8008 30.734 20.1887 29.8523 16.5101 29.7065C12.8315 29.5608 9.16094 30.1539 5.71547 31.451C4.61101 31.8679 3.91963 33.2117 4.61101 34.487C5.81883 36.6707 7.18954 38.7602 8.71148 40.7378C8.49274 39.98 8.87945 38.5767 10.3638 38.1178C14.4691 36.8561 18.7766 37.3912 21.6398 38.5504C22.4484 38.8756 23.5929 38.6783 24.2345 37.7174C25.3286 36.0319 26.3237 34.2842 27.2148 32.4832C27.2549 32.4021 27.2149 32.3416 27.1328 32.2996ZM20.4807 42.4165C19.2797 41.81 18.1814 41.0189 17.2259 40.0718C16.7835 39.6294 16.1322 38.9937 15.4457 38.2359C13.8783 38.2359 12.3569 38.3931 10.73 38.9127C9.21928 39.3853 9.07768 41.1304 9.73879 42.0405C10.8569 43.434 11.6411 44.1859 12.892 45.4789C13.555 46.1291 14.4452 46.4954 15.3738 46.5C16.3024 46.5045 17.1962 46.147 17.8655 45.5033C18.842 44.5268 19.4426 43.8754 20.5461 42.6245C20.6115 42.5581 20.5861 42.4419 20.4797 42.4165H20.4807Z" fill="white"/>
<path d="M66.2645 17.68V24.72H55.1445V28.64H63.1445V35.32H55.1445V46H46.2645V17.68H66.2645ZM88.6323 41.72H79.1923L77.7923 46H68.4723L78.8323 17.68H89.0723L99.3923 46H90.0323L88.6323 41.72ZM86.4723 35.04L83.9123 27.16L81.3523 35.04H86.4723ZM113.69 46.28C110.303 46.28 107.503 45.4933 105.29 43.92C103.103 42.32 101.917 39.9867 101.73 36.92H111.17C111.303 38.5467 112.023 39.36 113.33 39.36C113.81 39.36 114.21 39.2533 114.53 39.04C114.877 38.8 115.05 38.44 115.05 37.96C115.05 37.2933 114.69 36.76 113.97 36.36C113.25 35.9333 112.13 35.4533 110.61 34.92C108.797 34.28 107.29 33.6533 106.09 33.04C104.917 32.4267 103.903 31.5333 103.05 30.36C102.197 29.1867 101.783 27.68 101.81 25.84C101.81 24 102.277 22.44 103.21 21.16C104.17 19.8533 105.463 18.8667 107.09 18.2C108.743 17.5333 110.597 17.2 112.65 17.2C116.117 17.2 118.863 18 120.89 19.6C122.943 21.2 124.023 23.4533 124.13 26.36H114.57C114.543 25.56 114.343 24.9867 113.97 24.64C113.597 24.2933 113.143 24.12 112.61 24.12C112.237 24.12 111.93 24.2533 111.69 24.52C111.45 24.76 111.33 25.1067 111.33 25.56C111.33 26.2 111.677 26.7333 112.37 27.16C113.09 27.56 114.223 28.0533 115.77 28.64C117.557 29.3067 119.023 29.9467 120.17 30.56C121.343 31.1733 122.357 32.0267 123.21 33.12C124.063 34.2133 124.49 35.5867 124.49 37.24C124.49 38.9733 124.063 40.5333 123.21 41.92C122.357 43.28 121.117 44.3467 119.49 45.12C117.863 45.8933 115.93 46.28 113.69 46.28ZM155.01 17.68V46H146.13V34.96H137.69V46H128.81V17.68H137.69V27.88H146.13V17.68H155.01ZM169.085 17.68V46H160.205V17.68H169.085ZM188.096 46.28C185.429 46.28 182.976 45.6533 180.736 44.4C178.522 43.1467 176.762 41.4133 175.456 39.2C174.149 36.9867 173.496 34.4933 173.496 31.72C173.496 28.9467 174.149 26.4533 175.456 24.24C176.762 22.0267 178.522 20.3067 180.736 19.08C182.976 17.8267 185.429 17.2 188.096 17.2C190.762 17.2 193.202 17.8267 195.416 19.08C197.629 20.3067 199.376 22.0267 200.656 24.24C201.962 26.4533 202.616 28.9467 202.616 31.72C202.616 34.4933 201.962 36.9867 200.656 39.2C199.376 41.4133 197.616 43.1467 195.376 44.4C193.162 45.6533 190.736 46.28 188.096 46.28ZM188.096 38C189.856 38 191.216 37.44 192.176 36.32C193.136 35.1733 193.616 33.64 193.616 31.72C193.616 29.7733 193.136 28.24 192.176 27.12C191.216 25.9733 189.856 25.4 188.096 25.4C186.309 25.4 184.936 25.9733 183.976 27.12C183.016 28.24 182.536 29.7733 182.536 31.72C182.536 33.64 183.016 35.1733 183.976 36.32C184.936 37.44 186.309 38 188.096 38ZM234.179 46H225.299L215.899 31.76V46H207.019V17.68H215.899L225.299 32.16V17.68H234.179V46Z" fill="white"/>
</svg>
